<svg xmlns="http://www.w3.org/2000/svg" viewBox="0 0 70.13 91.88"><defs><style>.cls-1{fill:#231f20;}</style></defs><title>PY Logo</title><path class="cls-1" d="M65.13,20.57V33.69a17.38,17.38,0,0,1-2,8.79,15.66,15.66,0,0,1-11.67,7.83A9.46,9.46,0,0,1,45,49.1a8.41,8.41,0,0,1-3.66-5.34A27.17,27.17,0,0,1,40.67,39a16.39,16.39,0,0,0,1.48-.82A20.6,20.6,0,0,0,51.2,14.71,20.94,20.94,0,0,0,40.43,2.06a20.68,20.68,0,0,0-9-2.06A31.41,31.41,0,0,0,5,14.44V2.5H0V71.3H5V31.42A26.46,26.46,0,0,1,31.42,5,15.56,15.56,0,0,1,43.83,30,16,16,0,0,1,41.1,32.8l.11-1.38a9.68,9.68,0,0,0-2.67-6.68,9.72,9.72,0,0,0-16.79,6.68A9.88,9.88,0,0,0,29.93,41a14.8,14.8,0,0,0,2.49.06,22.34,22.34,0,0,0,3.36-.41c.31,3.46,1.06,6.91,3.26,9.68a13.57,13.57,0,0,0,8.38,4.9c6.5,1.08,13.51-2.13,17.71-7v23A15.58,15.58,0,1,1,34,71.3V65.69H29V71.3a20.58,20.58,0,1,0,41.15,0V20.57Zm-29.39,15a15.55,15.55,0,0,1-1.7.38,15.3,15.3,0,0,1-2.55.23h0a4.73,4.73,0,0,1-.83-9.38,4.58,4.58,0,0,1,.83-.08,4.7,4.7,0,0,1,3.81,1.95,5.07,5.07,0,0,1,.92,2.78A13.26,13.26,0,0,1,35.74,35.54Z"/></svg>